<svg xmlns="http://www.w3.org/2000/svg" focusable="false" color="inherit" fill="currentcolor" aria-hidden="true" role="presentation" viewBox="0 0 32 32" preserveAspectRatio="xMidYMid meet" size="30" width="30" height="30" class="sc-hMqMXs hlKksy">
                <path d="M31.6667 15.8333C31.6667 19.2983 30.5475 22.5075 28.6517 25.1175C27.6675 26.4733 26.4733 27.6675 25.1175 28.6517C22.5075 30.5475 19.2983 31.6667 15.8333 31.6667C7.1025 31.6667 0 24.5642 0 15.8333C0 7.1025 7.1025 0 15.8333 0C24.5642 0 31.6667 7.1025 31.6667 15.8333Z" fill="#A3C8D0"/>
                <path d="M29.1667 15.8333C29.1667 8.48125 23.1854 2.5 15.8333 2.5C8.48125 2.5 2.5 8.48125 2.5 15.8333C2.5 23.1854 8.48125 29.1667 15.8333 29.1667C23.1854 29.1667 29.1667 23.1854 29.1667 15.8333ZM15.8333 27.5C9.40033 27.5 4.16667 22.2663 4.16667 15.8333C4.16667 9.40033 9.40033 4.16667 15.8333 4.16667C22.2663 4.16667 27.5 9.40033 27.5 15.8333C27.5 22.2663 22.2663 27.5 15.8333 27.5Z" fill="#02647A" stroke="#18637B" stroke-width="0.2"/>
                <path d="M15.8333 3.33334C22.7258 3.33334 28.3333 8.94084 28.3333 15.8333C28.3333 22.7258 22.7258 28.3333 15.8333 28.3333C8.94081 28.3333 3.33331 22.7258 3.33331 15.8333C3.33331 8.94084 8.94081 3.33334 15.8333 3.33334Z" fill="white"/>
                <path fill-rule="evenodd" clip-rule="evenodd" d="M16.3183 15.5804L16.2429 11.264C16.2368 10.9139 15.9473 10.6342 15.5971 10.6403C15.247 10.6465 14.9674 10.936 14.9735 11.2861L15.0488 15.6008C14.9225 15.6694 14.7962 15.7399 14.6912 15.8486C14.1514 16.4076 14.1661 17.3009 14.7251 17.8407C15.285 18.3814 16.1783 18.3649 16.7181 17.8059C17.2588 17.246 17.2433 16.3536 16.6833 15.8129C16.5756 15.7088 16.4469 15.6428 16.3183 15.5804Z" fill="#E7412A"/>
                <path fill-rule="evenodd" clip-rule="evenodd" d="M16.8853 17.4878L21.2024 17.4878C21.5526 17.4878 21.8372 17.2032 21.8372 16.853C21.8372 16.5028 21.5526 16.2182 21.2024 16.2182L16.8871 16.2182C16.8207 16.0907 16.7525 15.9632 16.6456 15.8563C16.0961 15.3068 15.2027 15.3059 14.6532 15.8554C14.1028 16.4058 14.1037 17.2992 14.6532 17.8487C15.2036 18.3992 16.0961 18.3992 16.6465 17.8487C16.7525 17.7428 16.8207 17.6153 16.8853 17.4878Z" fill="#E7412A"/>
              </svg>